<svg xmlns="http://www.w3.org/2000/svg" width="1200" height="675" viewBox="0 0 1200 675">
    <defs>
      <linearGradient id="bg" x1="0" y1="0" x2="1" y2="1"><stop stop-color="#07131e"/><stop offset="1" stop-color="#0a2633"/></linearGradient>
      <radialGradient id="glowA"><stop stop-color="#00d9ff" stop-opacity=".75"/><stop offset="1" stop-color="#00d9ff" stop-opacity="0"/></radialGradient>
      <radialGradient id="glowB"><stop stop-color="#65f5c5" stop-opacity=".85"/><stop offset="1" stop-color="#65f5c5" stop-opacity=".15"/></radialGradient>
      <linearGradient id="shoeBg" x1="0" y1="0" x2="1" y2="1"><stop stop-color="#ffe76a"/><stop offset="1" stop-color="#ff7db4"/></linearGradient>
      <linearGradient id="reelBg" x1="0" y1="0" x2="0" y2="1"><stop stop-color="#65f5c5"/><stop offset="1" stop-color="#00d9ff"/></linearGradient>
      <pattern id="grid" width="36" height="36" patternUnits="userSpaceOnUse"><path d="M36 0H0V36" fill="none" stroke="#ffffff" stroke-opacity=".055"/></pattern>
      <filter id="shadow"><feDropShadow dx="0" dy="18" stdDeviation="18" flood-opacity=".35"/></filter>
    </defs>
    <rect width="1200" height="675" fill="url(#bg)"/>
    <rect width="1200" height="675" fill="url(#grid)"/>
    <circle cx="1020" cy="90" r="230" fill="#65f5c5" opacity=".08"/>
    <circle cx="180" cy="620" r="260" fill="#00d9ff" opacity=".06"/>
    <g filter="url(#shadow)"><rect x="650" y="150" width="410" height="340" rx="24" fill="#07101b" stroke="#00d9ff" stroke-width="3" opacity="1"/><circle cx="700" cy="190" r="7" fill="#ff6b7d" stroke="none" stroke-width="2" opacity="1"/><circle cx="725" cy="190" r="7" fill="#ffc75f" stroke="none" stroke-width="2" opacity="1"/><circle cx="750" cy="190" r="7" fill="#56df9f" stroke="none" stroke-width="2" opacity="1"/><rect x="700" y="240" width="220" height="7" rx="4" fill="#00d9ff" stroke="none" stroke-width="0" opacity="0.95"/><rect x="700" y="265" width="290" height="7" rx="4" fill="#00d9ff" stroke="none" stroke-width="0" opacity="0.95"/><rect x="700" y="290" width="175" height="7" rx="4" fill="#00d9ff" stroke="none" stroke-width="0" opacity="0.95"/><rect x="700" y="315" width="250" height="7" rx="4" fill="#00d9ff" stroke="none" stroke-width="0" opacity="0.95"/><rect x="700" y="340" width="120" height="7" rx="4" fill="#00d9ff" stroke="none" stroke-width="0" opacity="0.95"/><circle cx="960" cy="410" r="60" fill="#0d2530" stroke="#65f5c5" stroke-width="4" opacity="1"/><text x="960" y="425" fill="#65f5c5" font-size="27" font-weight="800" text-anchor="middle" opacity="1" font-family="Manrope,Arial,sans-serif">BUG</text><line x1="960" y1="350" x2="960" y2="322" stroke="#65f5c5" stroke-width="5" opacity="1" stroke-linecap="round"/><line x1="918" y1="380" x2="890" y2="365" stroke="#65f5c5" stroke-width="5" opacity="1" stroke-linecap="round"/><line x1="1002" y1="380" x2="1030" y2="365" stroke="#65f5c5" stroke-width="5" opacity="1" stroke-linecap="round"/></g>
    <rect x="55" y="55" width="190" height="42" rx="21" fill="#07101a" stroke="#00d9ff" stroke-width="2" opacity="0.96"/>
    <text x="150" y="83" fill="#00d9ff" font-size="14" font-weight="900" text-anchor="middle" opacity="1" font-family="Manrope,Arial,sans-serif">KODLAMA</text>
    <text x="70" y="180" fill="#f4f7ff" font-size="48" font-weight="900" text-anchor="start" opacity="1" font-family="Manrope,Arial,sans-serif">Mevcut Kodu Bozmadan</text><text x="70" y="242" fill="#f4f7ff" font-size="48" font-weight="900" text-anchor="start" opacity="1" font-family="Manrope,Arial,sans-serif">Hata Ayıklama</text>
    <text x="72" y="390" fill="#65f5c5" font-size="19" font-weight="800" text-anchor="start" opacity="1" font-family="Manrope,Arial,sans-serif">Hata ayıklama</text>
    <text x="72" y="430" fill="#9eb0c8" font-size="15" font-weight="600" text-anchor="start" opacity="1" font-family="Manrope,Arial,sans-serif">ChatGPT • Claude • Gemini</text>
    <rect x="70" y="495" width="230" height="50" rx="25" fill="#07101a" stroke="#00d9ff" stroke-width="2" opacity="0.95"/>
    <text x="185" y="527" fill="#eafcff" font-size="15" font-weight="900" text-anchor="middle" opacity="1" font-family="Manrope,Arial,sans-serif">PROMPTLA • #01</text>
    </svg>