<svg xmlns="http://www.w3.org/2000/svg" width="1200" height="675" viewBox="0 0 1200 675">
    <defs>
      <linearGradient id="bg" x1="0" y1="0" x2="1" y2="1"><stop stop-color="#07131e"/><stop offset="1" stop-color="#0a2633"/></linearGradient>
      <radialGradient id="glowA"><stop stop-color="#00d9ff" stop-opacity=".75"/><stop offset="1" stop-color="#00d9ff" stop-opacity="0"/></radialGradient>
      <radialGradient id="glowB"><stop stop-color="#65f5c5" stop-opacity=".85"/><stop offset="1" stop-color="#65f5c5" stop-opacity=".15"/></radialGradient>
      <linearGradient id="shoeBg" x1="0" y1="0" x2="1" y2="1"><stop stop-color="#ffe76a"/><stop offset="1" stop-color="#ff7db4"/></linearGradient>
      <linearGradient id="reelBg" x1="0" y1="0" x2="0" y2="1"><stop stop-color="#65f5c5"/><stop offset="1" stop-color="#00d9ff"/></linearGradient>
      <pattern id="grid" width="36" height="36" patternUnits="userSpaceOnUse"><path d="M36 0H0V36" fill="none" stroke="#ffffff" stroke-opacity=".055"/></pattern>
      <filter id="shadow"><feDropShadow dx="0" dy="18" stdDeviation="18" flood-opacity=".35"/></filter>
    </defs>
    <rect width="1200" height="675" fill="url(#bg)"/>
    <rect width="1200" height="675" fill="url(#grid)"/>
    <circle cx="1020" cy="90" r="230" fill="#65f5c5" opacity=".08"/>
    <circle cx="180" cy="620" r="260" fill="#00d9ff" opacity=".06"/>
    <g filter="url(#shadow)"><path d="M690 195 C690 173, 850 173, 850 195 L850 255 C850 277,690 277,690 255 Z" fill="#0b2430" stroke="#00d9ff" stroke-width="3" opacity="1" stroke-linecap="round" stroke-linejoin="round"/><path d="M690 195 C690 217,850 217,850 195" fill="none" stroke="#00d9ff" stroke-width="3" opacity="1" stroke-linecap="round" stroke-linejoin="round"/><path d="M690 285 C690 263, 850 263, 850 285 L850 345 C850 367,690 367,690 345 Z" fill="#0b2430" stroke="#00d9ff" stroke-width="3" opacity="1" stroke-linecap="round" stroke-linejoin="round"/><path d="M690 285 C690 307,850 307,850 285" fill="none" stroke="#00d9ff" stroke-width="3" opacity="1" stroke-linecap="round" stroke-linejoin="round"/><path d="M690 375 C690 353, 850 353, 850 375 L850 435 C850 457,690 457,690 435 Z" fill="#0b2430" stroke="#00d9ff" stroke-width="3" opacity="1" stroke-linecap="round" stroke-linejoin="round"/><path d="M690 375 C690 397,850 397,850 375" fill="none" stroke="#00d9ff" stroke-width="3" opacity="1" stroke-linecap="round" stroke-linejoin="round"/><rect x="900" y="190" width="190" height="260" rx="18" fill="#07101b" stroke="#65f5c5" stroke-width="2" opacity="1"/><rect x="930" y="235" width="110" height="7" rx="4" fill="#65f5c5" stroke="none" stroke-width="0" opacity="0.95"/><rect x="930" y="259" width="130" height="7" rx="4" fill="#65f5c5" stroke="none" stroke-width="0" opacity="0.95"/><rect x="930" y="283" width="90" height="7" rx="4" fill="#65f5c5" stroke="none" stroke-width="0" opacity="0.95"/><rect x="930" y="307" width="145" height="7" rx="4" fill="#65f5c5" stroke="none" stroke-width="0" opacity="0.95"/><rect x="930" y="331" width="115" height="7" rx="4" fill="#65f5c5" stroke="none" stroke-width="0" opacity="0.95"/><rect x="930" y="355" width="75" height="7" rx="4" fill="#65f5c5" stroke="none" stroke-width="0" opacity="0.95"/><path d="M930 430 C970 370 1010 410 1060 300" fill="none" stroke="#00d9ff" stroke-width="5" opacity="1" stroke-linecap="round" stroke-linejoin="round"/></g>
    <rect x="55" y="55" width="190" height="42" rx="21" fill="#07101a" stroke="#00d9ff" stroke-width="2" opacity="0.96"/>
    <text x="150" y="83" fill="#00d9ff" font-size="14" font-weight="900" text-anchor="middle" opacity="1" font-family="Manrope,Arial,sans-serif">KODLAMA</text>
    <text x="70" y="180" fill="#f4f7ff" font-size="48" font-weight="900" text-anchor="start" opacity="1" font-family="Manrope,Arial,sans-serif">SQL Sorgusu</text><text x="70" y="242" fill="#f4f7ff" font-size="48" font-weight="900" text-anchor="start" opacity="1" font-family="Manrope,Arial,sans-serif">Optimizasyonu</text>
    <text x="72" y="390" fill="#65f5c5" font-size="19" font-weight="800" text-anchor="start" opacity="1" font-family="Manrope,Arial,sans-serif">Veritabanı</text>
    <text x="72" y="430" fill="#9eb0c8" font-size="15" font-weight="600" text-anchor="start" opacity="1" font-family="Manrope,Arial,sans-serif">ChatGPT • Claude • Gemini</text>
    <rect x="70" y="495" width="230" height="50" rx="25" fill="#07101a" stroke="#00d9ff" stroke-width="2" opacity="0.95"/>
    <text x="185" y="527" fill="#eafcff" font-size="15" font-weight="900" text-anchor="middle" opacity="1" font-family="Manrope,Arial,sans-serif">PROMPTLA • #03</text>
    </svg>