<svg xmlns="http://www.w3.org/2000/svg" width="1200" height="675" viewBox="0 0 1200 675">
    <defs>
      <linearGradient id="bg" x1="0" y1="0" x2="1" y2="1"><stop stop-color="#14091d"/><stop offset="1" stop-color="#301139"/></linearGradient>
      <radialGradient id="glowA"><stop stop-color="#ff4fb8" stop-opacity=".75"/><stop offset="1" stop-color="#ff4fb8" stop-opacity="0"/></radialGradient>
      <radialGradient id="glowB"><stop stop-color="#8b6cff" stop-opacity=".85"/><stop offset="1" stop-color="#8b6cff" stop-opacity=".15"/></radialGradient>
      <linearGradient id="shoeBg" x1="0" y1="0" x2="1" y2="1"><stop stop-color="#ffe76a"/><stop offset="1" stop-color="#ff7db4"/></linearGradient>
      <linearGradient id="reelBg" x1="0" y1="0" x2="0" y2="1"><stop stop-color="#8b6cff"/><stop offset="1" stop-color="#ff4fb8"/></linearGradient>
      <pattern id="grid" width="36" height="36" patternUnits="userSpaceOnUse"><path d="M36 0H0V36" fill="none" stroke="#ffffff" stroke-opacity=".055"/></pattern>
      <filter id="shadow"><feDropShadow dx="0" dy="18" stdDeviation="18" flood-opacity=".35"/></filter>
    </defs>
    <rect width="1200" height="675" fill="url(#bg)"/>
    <rect width="1200" height="675" fill="url(#grid)"/>
    <circle cx="1020" cy="90" r="230" fill="#8b6cff" opacity=".08"/>
    <circle cx="180" cy="620" r="260" fill="#ff4fb8" opacity=".06"/>
    <g filter="url(#shadow)"><rect x="670" y="145" width="390" height="390" rx="26" fill="#f3f0ff" stroke="none" stroke-width="2" opacity="1"/><rect x="700" y="175" width="330" height="330" rx="22" fill="url(#shoeBg)" stroke="none" stroke-width="2" opacity="1"/><text x="735" y="220" fill="#16142a" font-size="58" font-weight="900" text-anchor="start" opacity="1" font-family="Manrope,Arial,sans-serif">RUN</text><text x="735" y="258" fill="#16142a" font-size="25" font-weight="800" text-anchor="start" opacity="1" font-family="Manrope,Arial,sans-serif">BEYOND</text><path d="M745 385 C795 350 840 338 900 350 C942 360 985 397 995 423 C946 446 835 452 755 427 C735 420 725 404 745 385 Z" fill="#f7f9ff" stroke="#16142a" stroke-width="6" opacity="1" stroke-linecap="round" stroke-linejoin="round"/><path d="M800 363 C825 337 864 319 917 332 L946 362 L875 390 Z" fill="#ff4fb8" stroke="#16142a" stroke-width="5" opacity="1" stroke-linecap="round" stroke-linejoin="round"/><line x1="760" y1="408" x2="978" y2="408" stroke="#16142a" stroke-width="5" opacity="1" stroke-linecap="round"/><circle cx="805" cy="432" r="12" fill="#16142a" stroke="none" stroke-width="2" opacity="1"/><circle cx="930" cy="432" r="12" fill="#16142a" stroke="none" stroke-width="2" opacity="1"/><rect x="735" y="465" width="120" height="32" rx="16" fill="#8b6cff" stroke="none" stroke-width="2" opacity="1"/><text x="795" y="487" fill="#fff" font-size="13" font-weight="900" text-anchor="middle" opacity="1" font-family="Manrope,Arial,sans-serif">SHOP NOW</text></g>
    <rect x="55" y="55" width="190" height="42" rx="21" fill="#07101a" stroke="#ff4fb8" stroke-width="2" opacity="0.96"/>
    <text x="150" y="83" fill="#ff4fb8" font-size="14" font-weight="900" text-anchor="middle" opacity="1" font-family="Manrope,Arial,sans-serif">GÖRSEL ÜRETIM</text>
    <text x="70" y="180" fill="#f4f7ff" font-size="48" font-weight="900" text-anchor="start" opacity="1" font-family="Manrope,Arial,sans-serif">Sosyal Medya Kampanya</text><text x="70" y="242" fill="#f4f7ff" font-size="48" font-weight="900" text-anchor="start" opacity="1" font-family="Manrope,Arial,sans-serif">Posteri</text>
    <text x="72" y="390" fill="#8b6cff" font-size="19" font-weight="800" text-anchor="start" opacity="1" font-family="Manrope,Arial,sans-serif">Sosyal medya</text>
    <text x="72" y="430" fill="#9eb0c8" font-size="15" font-weight="600" text-anchor="start" opacity="1" font-family="Manrope,Arial,sans-serif">ChatGPT Images • Midjourney • Firefly</text>
    <rect x="70" y="495" width="230" height="50" rx="25" fill="#07101a" stroke="#ff4fb8" stroke-width="2" opacity="0.95"/>
    <text x="185" y="527" fill="#eafcff" font-size="15" font-weight="900" text-anchor="middle" opacity="1" font-family="Manrope,Arial,sans-serif">PROMPTLA • #09</text>
    </svg>