<svg xmlns="http://www.w3.org/2000/svg" width="1200" height="675" viewBox="0 0 1200 675">
    <defs>
      <linearGradient id="bg" x1="0" y1="0" x2="1" y2="1"><stop stop-color="#14091d"/><stop offset="1" stop-color="#301139"/></linearGradient>
      <radialGradient id="glowA"><stop stop-color="#ff4fb8" stop-opacity=".75"/><stop offset="1" stop-color="#ff4fb8" stop-opacity="0"/></radialGradient>
      <radialGradient id="glowB"><stop stop-color="#8b6cff" stop-opacity=".85"/><stop offset="1" stop-color="#8b6cff" stop-opacity=".15"/></radialGradient>
      <linearGradient id="shoeBg" x1="0" y1="0" x2="1" y2="1"><stop stop-color="#ffe76a"/><stop offset="1" stop-color="#ff7db4"/></linearGradient>
      <linearGradient id="reelBg" x1="0" y1="0" x2="0" y2="1"><stop stop-color="#8b6cff"/><stop offset="1" stop-color="#ff4fb8"/></linearGradient>
      <pattern id="grid" width="36" height="36" patternUnits="userSpaceOnUse"><path d="M36 0H0V36" fill="none" stroke="#ffffff" stroke-opacity=".055"/></pattern>
      <filter id="shadow"><feDropShadow dx="0" dy="18" stdDeviation="18" flood-opacity=".35"/></filter>
    </defs>
    <rect width="1200" height="675" fill="url(#bg)"/>
    <rect width="1200" height="675" fill="url(#grid)"/>
    <circle cx="1020" cy="90" r="230" fill="#8b6cff" opacity=".08"/>
    <circle cx="180" cy="620" r="260" fill="#ff4fb8" opacity=".06"/>
    <g filter="url(#shadow)"><circle cx="865" cy="280" r="92" fill="#d9a883" stroke="none" stroke-width="2" opacity="1"/><path d="M760 505 C770 385 950 385 970 505 Z" fill="#8b6cff" stroke="none" stroke-width="2" opacity="1" stroke-linecap="round" stroke-linejoin="round"/><path d="M787 270 C805 145 950 160 960 285 C920 222 850 215 787 270 Z" fill="#14233a" stroke="none" stroke-width="2" opacity="1" stroke-linecap="round" stroke-linejoin="round"/><circle cx="830" cy="280" r="7" fill="#101620" stroke="none" stroke-width="2" opacity="1"/><circle cx="900" cy="280" r="7" fill="#101620" stroke="none" stroke-width="2" opacity="1"/><path d="M842 327 Q866 342 892 327" fill="none" stroke="#7a3f4b" stroke-width="4" opacity="1" stroke-linecap="round" stroke-linejoin="round"/><rect x="700" y="160" width="330" height="390" rx="26" fill="none" stroke="#ff4fb8" stroke-width="3" opacity="1"/></g>
    <rect x="55" y="55" width="190" height="42" rx="21" fill="#07101a" stroke="#ff4fb8" stroke-width="2" opacity="0.96"/>
    <text x="150" y="83" fill="#ff4fb8" font-size="14" font-weight="900" text-anchor="middle" opacity="1" font-family="Manrope,Arial,sans-serif">GÖRSEL ÜRETIM</text>
    <text x="70" y="180" fill="#f4f7ff" font-size="48" font-weight="900" text-anchor="start" opacity="1" font-family="Manrope,Arial,sans-serif">Sinematik Karakter</text><text x="70" y="242" fill="#f4f7ff" font-size="48" font-weight="900" text-anchor="start" opacity="1" font-family="Manrope,Arial,sans-serif">Portresi</text>
    <text x="72" y="390" fill="#8b6cff" font-size="19" font-weight="800" text-anchor="start" opacity="1" font-family="Manrope,Arial,sans-serif">Portre</text>
    <text x="72" y="430" fill="#9eb0c8" font-size="15" font-weight="600" text-anchor="start" opacity="1" font-family="Manrope,Arial,sans-serif">Midjourney • ChatGPT Images • Leonardo</text>
    <rect x="70" y="495" width="230" height="50" rx="25" fill="#07101a" stroke="#ff4fb8" stroke-width="2" opacity="0.95"/>
    <text x="185" y="527" fill="#eafcff" font-size="15" font-weight="900" text-anchor="middle" opacity="1" font-family="Manrope,Arial,sans-serif">PROMPTLA • #10</text>
    </svg>