<svg xmlns="http://www.w3.org/2000/svg" width="1200" height="675" viewBox="0 0 1200 675">
    <defs>
      <linearGradient id="bg" x1="0" y1="0" x2="1" y2="1"><stop stop-color="#14091d"/><stop offset="1" stop-color="#301139"/></linearGradient>
      <radialGradient id="glowA"><stop stop-color="#ff4fb8" stop-opacity=".75"/><stop offset="1" stop-color="#ff4fb8" stop-opacity="0"/></radialGradient>
      <radialGradient id="glowB"><stop stop-color="#8b6cff" stop-opacity=".85"/><stop offset="1" stop-color="#8b6cff" stop-opacity=".15"/></radialGradient>
      <linearGradient id="shoeBg" x1="0" y1="0" x2="1" y2="1"><stop stop-color="#ffe76a"/><stop offset="1" stop-color="#ff7db4"/></linearGradient>
      <linearGradient id="reelBg" x1="0" y1="0" x2="0" y2="1"><stop stop-color="#8b6cff"/><stop offset="1" stop-color="#ff4fb8"/></linearGradient>
      <pattern id="grid" width="36" height="36" patternUnits="userSpaceOnUse"><path d="M36 0H0V36" fill="none" stroke="#ffffff" stroke-opacity=".055"/></pattern>
      <filter id="shadow"><feDropShadow dx="0" dy="18" stdDeviation="18" flood-opacity=".35"/></filter>
    </defs>
    <rect width="1200" height="675" fill="url(#bg)"/>
    <rect width="1200" height="675" fill="url(#grid)"/>
    <circle cx="1020" cy="90" r="230" fill="#8b6cff" opacity=".08"/>
    <circle cx="180" cy="620" r="260" fill="#ff4fb8" opacity=".06"/>
    <g filter="url(#shadow)"><circle cx="970" cy="200" r="70" fill="#b8ddff" stroke="none" stroke-width="2" opacity="0.85"/><path d="M630 520 L760 320 L850 420 L950 260 L1120 520 Z" fill="#17304a" stroke="#8b6cff" stroke-width="3" opacity="1" stroke-linecap="round" stroke-linejoin="round"/><path d="M630 520 L810 390 L900 480 L1040 350 L1120 520 Z" fill="#0c2132" stroke="#ff4fb8" stroke-width="3" opacity="1" stroke-linecap="round" stroke-linejoin="round"/><rect x="820" y="430" width="80" height="90" rx="5" fill="#2e1d19" stroke="#8b6cff" stroke-width="2" opacity="1"/><path d="M860 430 L900 390 L940 430 Z" fill="#8b6cff" stroke="none" stroke-width="2" opacity="1" stroke-linecap="round" stroke-linejoin="round"/></g>
    <rect x="55" y="55" width="190" height="42" rx="21" fill="#07101a" stroke="#ff4fb8" stroke-width="2" opacity="0.96"/>
    <text x="150" y="83" fill="#ff4fb8" font-size="14" font-weight="900" text-anchor="middle" opacity="1" font-family="Manrope,Arial,sans-serif">GÖRSEL ÜRETIM</text>
    <text x="70" y="180" fill="#f4f7ff" font-size="48" font-weight="900" text-anchor="start" opacity="1" font-family="Manrope,Arial,sans-serif">Oyun Konsept Sanatı</text>
    <text x="72" y="390" fill="#8b6cff" font-size="19" font-weight="800" text-anchor="start" opacity="1" font-family="Manrope,Arial,sans-serif">Konsept tasarım</text>
    <text x="72" y="430" fill="#9eb0c8" font-size="15" font-weight="600" text-anchor="start" opacity="1" font-family="Manrope,Arial,sans-serif">Midjourney • Leonardo • ChatGPT Images</text>
    <rect x="70" y="495" width="230" height="50" rx="25" fill="#07101a" stroke="#ff4fb8" stroke-width="2" opacity="0.95"/>
    <text x="185" y="527" fill="#eafcff" font-size="15" font-weight="900" text-anchor="middle" opacity="1" font-family="Manrope,Arial,sans-serif">PROMPTLA • #12</text>
    </svg>