<svg xmlns="http://www.w3.org/2000/svg" width="1200" height="675" viewBox="0 0 1200 675">
    <defs>
      <linearGradient id="bg" x1="0" y1="0" x2="1" y2="1"><stop stop-color="#100b20"/><stop offset="1" stop-color="#251547"/></linearGradient>
      <radialGradient id="glowA"><stop stop-color="#9b6cff" stop-opacity=".75"/><stop offset="1" stop-color="#9b6cff" stop-opacity="0"/></radialGradient>
      <radialGradient id="glowB"><stop stop-color="#00d9ff" stop-opacity=".85"/><stop offset="1" stop-color="#00d9ff" stop-opacity=".15"/></radialGradient>
      <linearGradient id="shoeBg" x1="0" y1="0" x2="1" y2="1"><stop stop-color="#ffe76a"/><stop offset="1" stop-color="#ff7db4"/></linearGradient>
      <linearGradient id="reelBg" x1="0" y1="0" x2="0" y2="1"><stop stop-color="#00d9ff"/><stop offset="1" stop-color="#9b6cff"/></linearGradient>
      <pattern id="grid" width="36" height="36" patternUnits="userSpaceOnUse"><path d="M36 0H0V36" fill="none" stroke="#ffffff" stroke-opacity=".055"/></pattern>
      <filter id="shadow"><feDropShadow dx="0" dy="18" stdDeviation="18" flood-opacity=".35"/></filter>
    </defs>
    <rect width="1200" height="675" fill="url(#bg)"/>
    <rect width="1200" height="675" fill="url(#grid)"/>
    <circle cx="1020" cy="90" r="230" fill="#00d9ff" opacity=".08"/>
    <circle cx="180" cy="620" r="260" fill="#9b6cff" opacity=".06"/>
    <g filter="url(#shadow)"><path d="M640 500 L640 320 L700 320 L700 250 L760 250 L760 360 L820 360 L820 210 L880 210 L880 410 L940 410 L940 275 L1000 275 L1000 500 Z" fill="#10233b" stroke="#9b6cff" stroke-width="3" opacity="1" stroke-linecap="round" stroke-linejoin="round"/><path d="M650 500 C760 420 870 540 1090 350" fill="none" stroke="#00d9ff" stroke-width="7" opacity="1" stroke-linecap="round" stroke-linejoin="round"/><circle cx="1090" cy="350" r="14" fill="#00d9ff" stroke="none" stroke-width="2" opacity="1"/></g>
    <rect x="55" y="55" width="190" height="42" rx="21" fill="#07101a" stroke="#9b6cff" stroke-width="2" opacity="0.96"/>
    <text x="150" y="83" fill="#9b6cff" font-size="14" font-weight="900" text-anchor="middle" opacity="1" font-family="Manrope,Arial,sans-serif">VIDEO ÜRETIM</text>
    <text x="70" y="180" fill="#f4f7ff" font-size="48" font-weight="900" text-anchor="start" opacity="1" font-family="Manrope,Arial,sans-serif">Sinematik Şehir Geçişi</text>
    <text x="72" y="390" fill="#00d9ff" font-size="19" font-weight="800" text-anchor="start" opacity="1" font-family="Manrope,Arial,sans-serif">Sinematik</text>
    <text x="72" y="430" fill="#9eb0c8" font-size="15" font-weight="600" text-anchor="start" opacity="1" font-family="Manrope,Arial,sans-serif">Kling • Runway • Luma</text>
    <rect x="70" y="495" width="230" height="50" rx="25" fill="#07101a" stroke="#9b6cff" stroke-width="2" opacity="0.95"/>
    <text x="185" y="527" fill="#eafcff" font-size="15" font-weight="900" text-anchor="middle" opacity="1" font-family="Manrope,Arial,sans-serif">PROMPTLA • #15</text>
    </svg>