<svg xmlns="http://www.w3.org/2000/svg" width="1200" height="675" viewBox="0 0 1200 675">
    <defs>
      <linearGradient id="bg" x1="0" y1="0" x2="1" y2="1"><stop stop-color="#071716"/><stop offset="1" stop-color="#0d3028"/></linearGradient>
      <radialGradient id="glowA"><stop stop-color="#55f0b2" stop-opacity=".75"/><stop offset="1" stop-color="#55f0b2" stop-opacity="0"/></radialGradient>
      <radialGradient id="glowB"><stop stop-color="#b2ff72" stop-opacity=".85"/><stop offset="1" stop-color="#b2ff72" stop-opacity=".15"/></radialGradient>
      <linearGradient id="shoeBg" x1="0" y1="0" x2="1" y2="1"><stop stop-color="#ffe76a"/><stop offset="1" stop-color="#ff7db4"/></linearGradient>
      <linearGradient id="reelBg" x1="0" y1="0" x2="0" y2="1"><stop stop-color="#b2ff72"/><stop offset="1" stop-color="#55f0b2"/></linearGradient>
      <pattern id="grid" width="36" height="36" patternUnits="userSpaceOnUse"><path d="M36 0H0V36" fill="none" stroke="#ffffff" stroke-opacity=".055"/></pattern>
      <filter id="shadow"><feDropShadow dx="0" dy="18" stdDeviation="18" flood-opacity=".35"/></filter>
    </defs>
    <rect width="1200" height="675" fill="url(#bg)"/>
    <rect width="1200" height="675" fill="url(#grid)"/>
    <circle cx="1020" cy="90" r="230" fill="#b2ff72" opacity=".08"/>
    <circle cx="180" cy="620" r="260" fill="#55f0b2" opacity=".06"/>
    <g filter="url(#shadow)"><path d="M815 180 L925 180 L965 255 L945 470 L795 470 L775 255 Z" fill="#d8eef2" stroke="#55f0b2" stroke-width="4" opacity="1" stroke-linecap="round" stroke-linejoin="round"/><rect x="820" y="130" width="100" height="55" rx="10" fill="#182635" stroke="#b2ff72" stroke-width="3" opacity="1"/><path d="M795 330 Q870 285 945 330 L945 470 L795 470 Z" fill="#b2ff72" stroke="none" stroke-width="0" opacity="0.75" stroke-linecap="round" stroke-linejoin="round"/><circle cx="870" cy="500" r="115" fill="#07171b" stroke="none" stroke-width="0" opacity="0.55"/></g>
    <rect x="55" y="55" width="190" height="42" rx="21" fill="#07101a" stroke="#55f0b2" stroke-width="2" opacity="0.96"/>
    <text x="150" y="83" fill="#55f0b2" font-size="14" font-weight="900" text-anchor="middle" opacity="1" font-family="Manrope,Arial,sans-serif">3D VE OYUN</text>
    <text x="70" y="180" fill="#f4f7ff" font-size="48" font-weight="900" text-anchor="start" opacity="1" font-family="Manrope,Arial,sans-serif">Gerçekçi Ürün 3D Modeli</text>
    <text x="72" y="390" fill="#b2ff72" font-size="19" font-weight="800" text-anchor="start" opacity="1" font-family="Manrope,Arial,sans-serif">Ürün modelleme</text>
    <text x="72" y="430" fill="#9eb0c8" font-size="15" font-weight="600" text-anchor="start" opacity="1" font-family="Manrope,Arial,sans-serif">Meshy • Tripo • Blender AI</text>
    <rect x="70" y="495" width="230" height="50" rx="25" fill="#07101a" stroke="#55f0b2" stroke-width="2" opacity="0.95"/>
    <text x="185" y="527" fill="#eafcff" font-size="15" font-weight="900" text-anchor="middle" opacity="1" font-family="Manrope,Arial,sans-serif">PROMPTLA • #20</text>
    </svg>