<svg xmlns="http://www.w3.org/2000/svg" width="1200" height="675" viewBox="0 0 1200 675">
    <defs>
      <linearGradient id="bg" x1="0" y1="0" x2="1" y2="1"><stop stop-color="#151007"/><stop offset="1" stop-color="#33250c"/></linearGradient>
      <radialGradient id="glowA"><stop stop-color="#ffcf5c" stop-opacity=".75"/><stop offset="1" stop-color="#ffcf5c" stop-opacity="0"/></radialGradient>
      <radialGradient id="glowB"><stop stop-color="#ff8c5a" stop-opacity=".85"/><stop offset="1" stop-color="#ff8c5a" stop-opacity=".15"/></radialGradient>
      <linearGradient id="shoeBg" x1="0" y1="0" x2="1" y2="1"><stop stop-color="#ffe76a"/><stop offset="1" stop-color="#ff7db4"/></linearGradient>
      <linearGradient id="reelBg" x1="0" y1="0" x2="0" y2="1"><stop stop-color="#ff8c5a"/><stop offset="1" stop-color="#ffcf5c"/></linearGradient>
      <pattern id="grid" width="36" height="36" patternUnits="userSpaceOnUse"><path d="M36 0H0V36" fill="none" stroke="#ffffff" stroke-opacity=".055"/></pattern>
      <filter id="shadow"><feDropShadow dx="0" dy="18" stdDeviation="18" flood-opacity=".35"/></filter>
    </defs>
    <rect width="1200" height="675" fill="url(#bg)"/>
    <rect width="1200" height="675" fill="url(#grid)"/>
    <circle cx="1020" cy="90" r="230" fill="#ff8c5a" opacity=".08"/>
    <circle cx="180" cy="620" r="260" fill="#ffcf5c" opacity=".06"/>
    <g filter="url(#shadow)"><rect x="695" y="140" width="340" height="410" rx="16" fill="#f7f5ef" stroke="#ff8c5a" stroke-width="3" opacity="1"/><text x="865" y="200" fill="#2b2b35" font-size="22" font-weight="900" text-anchor="middle" opacity="1" font-family="Manrope,Arial,sans-serif">ACADEMIC PAPER</text><rect x="735" y="240" width="250" height="7" rx="4" fill="#85828b" stroke="none" stroke-width="0" opacity="0.95"/><rect x="735" y="265" width="275" height="7" rx="4" fill="#85828b" stroke="none" stroke-width="0" opacity="0.95"/><rect x="735" y="290" width="230" height="7" rx="4" fill="#85828b" stroke="none" stroke-width="0" opacity="0.95"/><rect x="735" y="315" width="260" height="7" rx="4" fill="#85828b" stroke="none" stroke-width="0" opacity="0.95"/><rect x="735" y="340" width="210" height="7" rx="4" fill="#85828b" stroke="none" stroke-width="0" opacity="0.95"/><rect x="735" y="365" width="280" height="7" rx="4" fill="#85828b" stroke="none" stroke-width="0" opacity="0.95"/><rect x="735" y="390" width="240" height="7" rx="4" fill="#85828b" stroke="none" stroke-width="0" opacity="0.95"/><rect x="735" y="415" width="185" height="7" rx="4" fill="#85828b" stroke="none" stroke-width="0" opacity="0.95"/><rect x="760" y="455" width="210" height="50" rx="8" fill="#e8e5dd" stroke="none" stroke-width="2" opacity="1"/><text x="865" y="487" fill="#55515d" font-size="17" font-weight="700" text-anchor="middle" opacity="1" font-family="Manrope,Arial,sans-serif">Kaynakça • APA</text></g>
    <rect x="55" y="55" width="190" height="42" rx="21" fill="#07101a" stroke="#ffcf5c" stroke-width="2" opacity="0.96"/>
    <text x="150" y="83" fill="#ffcf5c" font-size="14" font-weight="900" text-anchor="middle" opacity="1" font-family="Manrope,Arial,sans-serif">EĞITIM VE ÖDEV</text>
    <text x="70" y="180" fill="#f4f7ff" font-size="48" font-weight="900" text-anchor="start" opacity="1" font-family="Manrope,Arial,sans-serif">Akademik Metin Düzenleme</text>
    <text x="72" y="390" fill="#ff8c5a" font-size="19" font-weight="800" text-anchor="start" opacity="1" font-family="Manrope,Arial,sans-serif">Akademik yazım</text>
    <text x="72" y="430" fill="#9eb0c8" font-size="15" font-weight="600" text-anchor="start" opacity="1" font-family="Manrope,Arial,sans-serif">ChatGPT • Claude • Gemini</text>
    <rect x="70" y="495" width="230" height="50" rx="25" fill="#07101a" stroke="#ffcf5c" stroke-width="2" opacity="0.95"/>
    <text x="185" y="527" fill="#eafcff" font-size="15" font-weight="900" text-anchor="middle" opacity="1" font-family="Manrope,Arial,sans-serif">PROMPTLA • #28</text>
    </svg>