<svg xmlns="http://www.w3.org/2000/svg" width="1200" height="675" viewBox="0 0 1200 675">
    <defs>
      <linearGradient id="bg" x1="0" y1="0" x2="1" y2="1"><stop stop-color="#151007"/><stop offset="1" stop-color="#33250c"/></linearGradient>
      <radialGradient id="glowA"><stop stop-color="#ffcf5c" stop-opacity=".75"/><stop offset="1" stop-color="#ffcf5c" stop-opacity="0"/></radialGradient>
      <radialGradient id="glowB"><stop stop-color="#ff8c5a" stop-opacity=".85"/><stop offset="1" stop-color="#ff8c5a" stop-opacity=".15"/></radialGradient>
      <linearGradient id="shoeBg" x1="0" y1="0" x2="1" y2="1"><stop stop-color="#ffe76a"/><stop offset="1" stop-color="#ff7db4"/></linearGradient>
      <linearGradient id="reelBg" x1="0" y1="0" x2="0" y2="1"><stop stop-color="#ff8c5a"/><stop offset="1" stop-color="#ffcf5c"/></linearGradient>
      <pattern id="grid" width="36" height="36" patternUnits="userSpaceOnUse"><path d="M36 0H0V36" fill="none" stroke="#ffffff" stroke-opacity=".055"/></pattern>
      <filter id="shadow"><feDropShadow dx="0" dy="18" stdDeviation="18" flood-opacity=".35"/></filter>
    </defs>
    <rect width="1200" height="675" fill="url(#bg)"/>
    <rect width="1200" height="675" fill="url(#grid)"/>
    <circle cx="1020" cy="90" r="230" fill="#ff8c5a" opacity=".08"/>
    <circle cx="180" cy="620" r="260" fill="#ffcf5c" opacity=".06"/>
    <g filter="url(#shadow)"><rect x="700" y="155" width="320" height="360" rx="18" fill="#fbfaf5" stroke="#ffcf5c" stroke-width="3" opacity="1"/><rect x="735" y="200" width="250" height="36" rx="8" fill="#ffcf5c" stroke="none" stroke-width="2" opacity="1"/><text x="860" y="225" fill="#07121b" font-size="18" font-weight="900" text-anchor="middle" opacity="1" font-family="Manrope,Arial,sans-serif">PROJE RAPORU</text><rect x="735" y="270" width="105" height="95" rx="12" fill="#ff8c5a" stroke="none" stroke-width="2" opacity="1"/><rect x="865" y="270" width="120" height="18" rx="8" fill="#7c8798" stroke="none" stroke-width="2" opacity="1"/><rect x="865" y="305" width="95" height="18" rx="8" fill="#7c8798" stroke="none" stroke-width="2" opacity="1"/><rect x="865" y="340" width="110" height="18" rx="8" fill="#7c8798" stroke="none" stroke-width="2" opacity="1"/><rect x="735" y="400" width="250" height="7" rx="4" fill="#9b96a1" stroke="none" stroke-width="0" opacity="0.95"/><rect x="735" y="424" width="220" height="7" rx="4" fill="#9b96a1" stroke="none" stroke-width="0" opacity="0.95"/><rect x="735" y="448" width="240" height="7" rx="4" fill="#9b96a1" stroke="none" stroke-width="0" opacity="0.95"/><rect x="735" y="472" width="180" height="7" rx="4" fill="#9b96a1" stroke="none" stroke-width="0" opacity="0.95"/></g>
    <rect x="55" y="55" width="190" height="42" rx="21" fill="#07101a" stroke="#ffcf5c" stroke-width="2" opacity="0.96"/>
    <text x="150" y="83" fill="#ffcf5c" font-size="14" font-weight="900" text-anchor="middle" opacity="1" font-family="Manrope,Arial,sans-serif">EĞITIM VE ÖDEV</text>
    <text x="70" y="180" fill="#f4f7ff" font-size="48" font-weight="900" text-anchor="start" opacity="1" font-family="Manrope,Arial,sans-serif">Proje Raporu İskeleti</text>
    <text x="72" y="390" fill="#ff8c5a" font-size="19" font-weight="800" text-anchor="start" opacity="1" font-family="Manrope,Arial,sans-serif">Rapor</text>
    <text x="72" y="430" fill="#9eb0c8" font-size="15" font-weight="600" text-anchor="start" opacity="1" font-family="Manrope,Arial,sans-serif">ChatGPT • Claude • Gemini</text>
    <rect x="70" y="495" width="230" height="50" rx="25" fill="#07101a" stroke="#ffcf5c" stroke-width="2" opacity="0.95"/>
    <text x="185" y="527" fill="#eafcff" font-size="15" font-weight="900" text-anchor="middle" opacity="1" font-family="Manrope,Arial,sans-serif">PROMPTLA • #29</text>
    </svg>