<svg xmlns="http://www.w3.org/2000/svg" width="1200" height="675" viewBox="0 0 1200 675">
    <defs>
      <linearGradient id="bg" x1="0" y1="0" x2="1" y2="1"><stop stop-color="#0d1120"/><stop offset="1" stop-color="#1b2745"/></linearGradient>
      <radialGradient id="glowA"><stop stop-color="#6ca8ff" stop-opacity=".75"/><stop offset="1" stop-color="#6ca8ff" stop-opacity="0"/></radialGradient>
      <radialGradient id="glowB"><stop stop-color="#c77dff" stop-opacity=".85"/><stop offset="1" stop-color="#c77dff" stop-opacity=".15"/></radialGradient>
      <linearGradient id="shoeBg" x1="0" y1="0" x2="1" y2="1"><stop stop-color="#ffe76a"/><stop offset="1" stop-color="#ff7db4"/></linearGradient>
      <linearGradient id="reelBg" x1="0" y1="0" x2="0" y2="1"><stop stop-color="#c77dff"/><stop offset="1" stop-color="#6ca8ff"/></linearGradient>
      <pattern id="grid" width="36" height="36" patternUnits="userSpaceOnUse"><path d="M36 0H0V36" fill="none" stroke="#ffffff" stroke-opacity=".055"/></pattern>
      <filter id="shadow"><feDropShadow dx="0" dy="18" stdDeviation="18" flood-opacity=".35"/></filter>
    </defs>
    <rect width="1200" height="675" fill="url(#bg)"/>
    <rect width="1200" height="675" fill="url(#grid)"/>
    <circle cx="1020" cy="90" r="230" fill="#c77dff" opacity=".08"/>
    <circle cx="180" cy="620" r="260" fill="#6ca8ff" opacity=".06"/>
    <g filter="url(#shadow)"><rect x="650" y="175" width="200" height="300" rx="18" fill="#121827" stroke="#59657a" stroke-width="2" opacity="1"/><rect x="915" y="175" width="200" height="300" rx="18" fill="#f8f9fc" stroke="#6ca8ff" stroke-width="3" opacity="1"/><text x="750" y="220" fill="#a6b0c0" font-size="22" font-weight="900" text-anchor="middle" opacity="1" font-family="Manrope,Arial,sans-serif">HAM</text><text x="1015" y="220" fill="#172035" font-size="22" font-weight="900" text-anchor="middle" opacity="1" font-family="Manrope,Arial,sans-serif">PRO</text><rect x="690" y="270" width="120" height="7" rx="4" fill="#6e7c91" stroke="none" stroke-width="0" opacity="0.95"/><rect x="690" y="295" width="105" height="7" rx="4" fill="#6e7c91" stroke="none" stroke-width="0" opacity="0.95"/><rect x="690" y="320" width="130" height="7" rx="4" fill="#6e7c91" stroke="none" stroke-width="0" opacity="0.95"/><rect x="690" y="345" width="80" height="7" rx="4" fill="#6e7c91" stroke="none" stroke-width="0" opacity="0.95"/><rect x="690" y="370" width="110" height="7" rx="4" fill="#6e7c91" stroke="none" stroke-width="0" opacity="0.95"/><rect x="955" y="270" width="120" height="7" rx="4" fill="#c77dff" stroke="none" stroke-width="0" opacity="0.95"/><rect x="955" y="295" width="105" height="7" rx="4" fill="#c77dff" stroke="none" stroke-width="0" opacity="0.95"/><rect x="955" y="320" width="130" height="7" rx="4" fill="#c77dff" stroke="none" stroke-width="0" opacity="0.95"/><rect x="955" y="345" width="80" height="7" rx="4" fill="#c77dff" stroke="none" stroke-width="0" opacity="0.95"/><rect x="955" y="370" width="110" height="7" rx="4" fill="#c77dff" stroke="none" stroke-width="0" opacity="0.95"/><path d="M865 325 L900 325" fill="none" stroke="#6ca8ff" stroke-width="5" opacity="1" stroke-linecap="round" stroke-linejoin="round"/><path d="M885 305 L905 325 L885 345" fill="none" stroke="#6ca8ff" stroke-width="5" opacity="1" stroke-linecap="round" stroke-linejoin="round"/></g>
    <rect x="55" y="55" width="190" height="42" rx="21" fill="#07101a" stroke="#6ca8ff" stroke-width="2" opacity="0.96"/>
    <text x="150" y="83" fill="#6ca8ff" font-size="14" font-weight="900" text-anchor="middle" opacity="1" font-family="Manrope,Arial,sans-serif">İÇERIK VE METIN</text>
    <text x="70" y="180" fill="#f4f7ff" font-size="48" font-weight="900" text-anchor="start" opacity="1" font-family="Manrope,Arial,sans-serif">Metni Profesyonel Dile</text><text x="70" y="242" fill="#f4f7ff" font-size="48" font-weight="900" text-anchor="start" opacity="1" font-family="Manrope,Arial,sans-serif">Çevirme</text>
    <text x="72" y="390" fill="#c77dff" font-size="19" font-weight="800" text-anchor="start" opacity="1" font-family="Manrope,Arial,sans-serif">Düzenleme</text>
    <text x="72" y="430" fill="#9eb0c8" font-size="15" font-weight="600" text-anchor="start" opacity="1" font-family="Manrope,Arial,sans-serif">ChatGPT • Claude • Gemini</text>
    <rect x="70" y="495" width="230" height="50" rx="25" fill="#07101a" stroke="#6ca8ff" stroke-width="2" opacity="0.95"/>
    <text x="185" y="527" fill="#eafcff" font-size="15" font-weight="900" text-anchor="middle" opacity="1" font-family="Manrope,Arial,sans-serif">PROMPTLA • #35</text>
    </svg>