<svg xmlns="http://www.w3.org/2000/svg" width="1200" height="675" viewBox="0 0 1200 675">
    <defs>
      <linearGradient id="bg" x1="0" y1="0" x2="1" y2="1"><stop stop-color="#0d1120"/><stop offset="1" stop-color="#1b2745"/></linearGradient>
      <radialGradient id="glowA"><stop stop-color="#6ca8ff" stop-opacity=".75"/><stop offset="1" stop-color="#6ca8ff" stop-opacity="0"/></radialGradient>
      <radialGradient id="glowB"><stop stop-color="#c77dff" stop-opacity=".85"/><stop offset="1" stop-color="#c77dff" stop-opacity=".15"/></radialGradient>
      <linearGradient id="shoeBg" x1="0" y1="0" x2="1" y2="1"><stop stop-color="#ffe76a"/><stop offset="1" stop-color="#ff7db4"/></linearGradient>
      <linearGradient id="reelBg" x1="0" y1="0" x2="0" y2="1"><stop stop-color="#c77dff"/><stop offset="1" stop-color="#6ca8ff"/></linearGradient>
      <pattern id="grid" width="36" height="36" patternUnits="userSpaceOnUse"><path d="M36 0H0V36" fill="none" stroke="#ffffff" stroke-opacity=".055"/></pattern>
      <filter id="shadow"><feDropShadow dx="0" dy="18" stdDeviation="18" flood-opacity=".35"/></filter>
    </defs>
    <rect width="1200" height="675" fill="url(#bg)"/>
    <rect width="1200" height="675" fill="url(#grid)"/>
    <circle cx="1020" cy="90" r="230" fill="#c77dff" opacity=".08"/>
    <circle cx="180" cy="620" r="260" fill="#6ca8ff" opacity=".06"/>
    <g filter="url(#shadow)"><rect x="680" y="155" width="370" height="370" rx="18" fill="#fafbff" stroke="#c77dff" stroke-width="3" opacity="1"/><rect x="680" y="155" width="370" height="70" rx="18" fill="#6ca8ff" stroke="none" stroke-width="2" opacity="1"/><text x="865" y="201" fill="#07121b" font-size="22" font-weight="900" text-anchor="middle" opacity="1" font-family="Manrope,Arial,sans-serif">30 GÜNLÜK TAKVİM</text><rect x="715" y="255" width="46" height="42" rx="8" fill="#6ca8ff" stroke="none" stroke-width="2" opacity="1"/><rect x="779" y="255" width="46" height="42" rx="8" fill="#e8edf7" stroke="none" stroke-width="2" opacity="1"/><rect x="843" y="255" width="46" height="42" rx="8" fill="#e8edf7" stroke="none" stroke-width="2" opacity="1"/><rect x="907" y="255" width="46" height="42" rx="8" fill="#e8edf7" stroke="none" stroke-width="2" opacity="1"/><rect x="971" y="255" width="46" height="42" rx="8" fill="#e8edf7" stroke="none" stroke-width="2" opacity="1"/><rect x="715" y="315" width="46" height="42" rx="8" fill="#e8edf7" stroke="none" stroke-width="2" opacity="1"/><rect x="779" y="315" width="46" height="42" rx="8" fill="#6ca8ff" stroke="none" stroke-width="2" opacity="1"/><rect x="843" y="315" width="46" height="42" rx="8" fill="#e8edf7" stroke="none" stroke-width="2" opacity="1"/><rect x="907" y="315" width="46" height="42" rx="8" fill="#e8edf7" stroke="none" stroke-width="2" opacity="1"/><rect x="971" y="315" width="46" height="42" rx="8" fill="#e8edf7" stroke="none" stroke-width="2" opacity="1"/><rect x="715" y="375" width="46" height="42" rx="8" fill="#e8edf7" stroke="none" stroke-width="2" opacity="1"/><rect x="779" y="375" width="46" height="42" rx="8" fill="#e8edf7" stroke="none" stroke-width="2" opacity="1"/><rect x="843" y="375" width="46" height="42" rx="8" fill="#6ca8ff" stroke="none" stroke-width="2" opacity="1"/><rect x="907" y="375" width="46" height="42" rx="8" fill="#e8edf7" stroke="none" stroke-width="2" opacity="1"/><rect x="971" y="375" width="46" height="42" rx="8" fill="#e8edf7" stroke="none" stroke-width="2" opacity="1"/><rect x="715" y="435" width="46" height="42" rx="8" fill="#e8edf7" stroke="none" stroke-width="2" opacity="1"/><rect x="779" y="435" width="46" height="42" rx="8" fill="#e8edf7" stroke="none" stroke-width="2" opacity="1"/><rect x="843" y="435" width="46" height="42" rx="8" fill="#e8edf7" stroke="none" stroke-width="2" opacity="1"/><rect x="907" y="435" width="46" height="42" rx="8" fill="#6ca8ff" stroke="none" stroke-width="2" opacity="1"/><rect x="971" y="435" width="46" height="42" rx="8" fill="#e8edf7" stroke="none" stroke-width="2" opacity="1"/></g>
    <rect x="55" y="55" width="190" height="42" rx="21" fill="#07101a" stroke="#6ca8ff" stroke-width="2" opacity="0.96"/>
    <text x="150" y="83" fill="#6ca8ff" font-size="14" font-weight="900" text-anchor="middle" opacity="1" font-family="Manrope,Arial,sans-serif">İÇERIK VE METIN</text>
    <text x="70" y="180" fill="#f4f7ff" font-size="48" font-weight="900" text-anchor="start" opacity="1" font-family="Manrope,Arial,sans-serif">30 Günlük İçerik Takvimi</text>
    <text x="72" y="390" fill="#c77dff" font-size="19" font-weight="800" text-anchor="start" opacity="1" font-family="Manrope,Arial,sans-serif">İçerik planı</text>
    <text x="72" y="430" fill="#9eb0c8" font-size="15" font-weight="600" text-anchor="start" opacity="1" font-family="Manrope,Arial,sans-serif">ChatGPT • Claude • Gemini</text>
    <rect x="70" y="495" width="230" height="50" rx="25" fill="#07101a" stroke="#6ca8ff" stroke-width="2" opacity="0.95"/>
    <text x="185" y="527" fill="#eafcff" font-size="15" font-weight="900" text-anchor="middle" opacity="1" font-family="Manrope,Arial,sans-serif">PROMPTLA • #36</text>
    </svg>