<svg xmlns="http://www.w3.org/2000/svg" width="1200" height="675" viewBox="0 0 1200 675">
    <defs>
      <linearGradient id="bg" x1="0" y1="0" x2="1" y2="1"><stop stop-color="#07111d"/><stop offset="1" stop-color="#102b42"/></linearGradient>
      <radialGradient id="glowA"><stop stop-color="#57c7ff" stop-opacity=".75"/><stop offset="1" stop-color="#57c7ff" stop-opacity="0"/></radialGradient>
      <radialGradient id="glowB"><stop stop-color="#60f0b2" stop-opacity=".85"/><stop offset="1" stop-color="#60f0b2" stop-opacity=".15"/></radialGradient>
      <linearGradient id="shoeBg" x1="0" y1="0" x2="1" y2="1"><stop stop-color="#ffe76a"/><stop offset="1" stop-color="#ff7db4"/></linearGradient>
      <linearGradient id="reelBg" x1="0" y1="0" x2="0" y2="1"><stop stop-color="#60f0b2"/><stop offset="1" stop-color="#57c7ff"/></linearGradient>
      <pattern id="grid" width="36" height="36" patternUnits="userSpaceOnUse"><path d="M36 0H0V36" fill="none" stroke="#ffffff" stroke-opacity=".055"/></pattern>
      <filter id="shadow"><feDropShadow dx="0" dy="18" stdDeviation="18" flood-opacity=".35"/></filter>
    </defs>
    <rect width="1200" height="675" fill="url(#bg)"/>
    <rect width="1200" height="675" fill="url(#grid)"/>
    <circle cx="1020" cy="90" r="230" fill="#60f0b2" opacity=".08"/>
    <circle cx="180" cy="620" r="260" fill="#57c7ff" opacity=".06"/>
    <g filter="url(#shadow)"><rect x="705" y="145" width="310" height="410" rx="17" fill="#f9fafc" stroke="#57c7ff" stroke-width="3" opacity="1"/><circle cx="780" cy="220" r="45" fill="#a8b6cc" stroke="none" stroke-width="2" opacity="1"/><rect x="850" y="185" width="120" height="18" rx="9" fill="#253149" stroke="none" stroke-width="2" opacity="1"/><rect x="850" y="220" width="90" height="12" rx="6" fill="#8893a7" stroke="none" stroke-width="2" opacity="1"/><rect x="745" y="300" width="230" height="18" rx="9" fill="#60f0b2" stroke="none" stroke-width="2" opacity="1"/><rect x="745" y="340" width="225" height="7" rx="4" fill="#8995a8" stroke="none" stroke-width="0" opacity="0.95"/><rect x="745" y="364" width="190" height="7" rx="4" fill="#8995a8" stroke="none" stroke-width="0" opacity="0.95"/><rect x="745" y="388" width="215" height="7" rx="4" fill="#8995a8" stroke="none" stroke-width="0" opacity="0.95"/><rect x="745" y="412" width="170" height="7" rx="4" fill="#8995a8" stroke="none" stroke-width="0" opacity="0.95"/><rect x="745" y="436" width="205" height="7" rx="4" fill="#8995a8" stroke="none" stroke-width="0" opacity="0.95"/><rect x="745" y="460" width="140" height="7" rx="4" fill="#8995a8" stroke="none" stroke-width="0" opacity="0.95"/><rect x="745" y="500" width="110" height="28" rx="14" fill="#57c7ff" stroke="none" stroke-width="2" opacity="1"/><text x="800" y="520" fill="#07121b" font-size="14" font-weight="900" text-anchor="middle" opacity="1" font-family="Manrope,Arial,sans-serif">ATS 92</text></g>
    <rect x="55" y="55" width="190" height="42" rx="21" fill="#07101a" stroke="#57c7ff" stroke-width="2" opacity="0.96"/>
    <text x="150" y="83" fill="#57c7ff" font-size="14" font-weight="900" text-anchor="middle" opacity="1" font-family="Manrope,Arial,sans-serif">KARIYER</text>
    <text x="70" y="180" fill="#f4f7ff" font-size="48" font-weight="900" text-anchor="start" opacity="1" font-family="Manrope,Arial,sans-serif">ATS Uyumlu CV Geliştirme</text>
    <text x="72" y="390" fill="#60f0b2" font-size="19" font-weight="800" text-anchor="start" opacity="1" font-family="Manrope,Arial,sans-serif">CV</text>
    <text x="72" y="430" fill="#9eb0c8" font-size="15" font-weight="600" text-anchor="start" opacity="1" font-family="Manrope,Arial,sans-serif">ChatGPT • Claude • Gemini</text>
    <rect x="70" y="495" width="230" height="50" rx="25" fill="#07101a" stroke="#57c7ff" stroke-width="2" opacity="0.95"/>
    <text x="185" y="527" fill="#eafcff" font-size="15" font-weight="900" text-anchor="middle" opacity="1" font-family="Manrope,Arial,sans-serif">PROMPTLA • #37</text>
    </svg>