<svg xmlns="http://www.w3.org/2000/svg" width="1200" height="675" viewBox="0 0 1200 675">
    <defs>
      <linearGradient id="bg" x1="0" y1="0" x2="1" y2="1"><stop stop-color="#1a0c12"/><stop offset="1" stop-color="#3b1425"/></linearGradient>
      <radialGradient id="glowA"><stop stop-color="#ff5d7d" stop-opacity=".75"/><stop offset="1" stop-color="#ff5d7d" stop-opacity="0"/></radialGradient>
      <radialGradient id="glowB"><stop stop-color="#ffb05c" stop-opacity=".85"/><stop offset="1" stop-color="#ffb05c" stop-opacity=".15"/></radialGradient>
      <linearGradient id="shoeBg" x1="0" y1="0" x2="1" y2="1"><stop stop-color="#ffe76a"/><stop offset="1" stop-color="#ff7db4"/></linearGradient>
      <linearGradient id="reelBg" x1="0" y1="0" x2="0" y2="1"><stop stop-color="#ffb05c"/><stop offset="1" stop-color="#ff5d7d"/></linearGradient>
      <pattern id="grid" width="36" height="36" patternUnits="userSpaceOnUse"><path d="M36 0H0V36" fill="none" stroke="#ffffff" stroke-opacity=".055"/></pattern>
      <filter id="shadow"><feDropShadow dx="0" dy="18" stdDeviation="18" flood-opacity=".35"/></filter>
    </defs>
    <rect width="1200" height="675" fill="url(#bg)"/>
    <rect width="1200" height="675" fill="url(#grid)"/>
    <circle cx="1020" cy="90" r="230" fill="#ffb05c" opacity=".08"/>
    <circle cx="180" cy="620" r="260" fill="#ff5d7d" opacity=".06"/>
    <g filter="url(#shadow)"><path d="M850 420 C810 350 815 230 865 165 C915 230 920 350 880 420 Z" fill="#ffb05c" stroke="#ff5d7d" stroke-width="4" opacity="1" stroke-linecap="round" stroke-linejoin="round"/><circle cx="865" cy="265" r="30" fill="#dff9ff" stroke="#ff5d7d" stroke-width="4" opacity="1"/><path d="M820 400 L770 460 L835 450 Z" fill="#ff5d7d" stroke="none" stroke-width="2" opacity="1" stroke-linecap="round" stroke-linejoin="round"/><path d="M900 400 L960 460 L895 450 Z" fill="#ff5d7d" stroke="none" stroke-width="2" opacity="1" stroke-linecap="round" stroke-linejoin="round"/><path d="M850 420 L865 540 L880 420 Z" fill="#ffb05c" stroke="none" stroke-width="2" opacity="1" stroke-linecap="round" stroke-linejoin="round"/><text x="865" y="135" fill="#fff" font-size="24" font-weight="900" text-anchor="middle" opacity="1" font-family="Manrope,Arial,sans-serif">LAUNCH</text></g>
    <rect x="55" y="55" width="190" height="42" rx="21" fill="#07101a" stroke="#ff5d7d" stroke-width="2" opacity="0.96"/>
    <text x="150" y="83" fill="#ff5d7d" font-size="14" font-weight="900" text-anchor="middle" opacity="1" font-family="Manrope,Arial,sans-serif">PAZARLAMA</text>
    <text x="70" y="180" fill="#f4f7ff" font-size="48" font-weight="900" text-anchor="start" opacity="1" font-family="Manrope,Arial,sans-serif">Lansman Kampanyası Planı</text>
    <text x="72" y="390" fill="#ffb05c" font-size="19" font-weight="800" text-anchor="start" opacity="1" font-family="Manrope,Arial,sans-serif">Kampanya</text>
    <text x="72" y="430" fill="#9eb0c8" font-size="15" font-weight="600" text-anchor="start" opacity="1" font-family="Manrope,Arial,sans-serif">ChatGPT • Claude • Gemini</text>
    <rect x="70" y="495" width="230" height="50" rx="25" fill="#07101a" stroke="#ff5d7d" stroke-width="2" opacity="0.95"/>
    <text x="185" y="527" fill="#eafcff" font-size="15" font-weight="900" text-anchor="middle" opacity="1" font-family="Manrope,Arial,sans-serif">PROMPTLA • #46</text>
    </svg>