<svg xmlns="http://www.w3.org/2000/svg" width="1200" height="675" viewBox="0 0 1200 675">
    <defs>
      <linearGradient id="bg" x1="0" y1="0" x2="1" y2="1"><stop stop-color="#1a0c12"/><stop offset="1" stop-color="#3b1425"/></linearGradient>
      <radialGradient id="glowA"><stop stop-color="#ff5d7d" stop-opacity=".75"/><stop offset="1" stop-color="#ff5d7d" stop-opacity="0"/></radialGradient>
      <radialGradient id="glowB"><stop stop-color="#ffb05c" stop-opacity=".85"/><stop offset="1" stop-color="#ffb05c" stop-opacity=".15"/></radialGradient>
      <linearGradient id="shoeBg" x1="0" y1="0" x2="1" y2="1"><stop stop-color="#ffe76a"/><stop offset="1" stop-color="#ff7db4"/></linearGradient>
      <linearGradient id="reelBg" x1="0" y1="0" x2="0" y2="1"><stop stop-color="#ffb05c"/><stop offset="1" stop-color="#ff5d7d"/></linearGradient>
      <pattern id="grid" width="36" height="36" patternUnits="userSpaceOnUse"><path d="M36 0H0V36" fill="none" stroke="#ffffff" stroke-opacity=".055"/></pattern>
      <filter id="shadow"><feDropShadow dx="0" dy="18" stdDeviation="18" flood-opacity=".35"/></filter>
    </defs>
    <rect width="1200" height="675" fill="url(#bg)"/>
    <rect width="1200" height="675" fill="url(#grid)"/>
    <circle cx="1020" cy="90" r="230" fill="#ffb05c" opacity=".08"/>
    <circle cx="180" cy="620" r="260" fill="#ff5d7d" opacity=".06"/>
    <g filter="url(#shadow)"><rect x="665" y="210" width="260" height="150" rx="15" fill="#f7f8fb" stroke="#ff5d7d" stroke-width="3" opacity="1"/><path d="M685 235 L795 300 L905 235" fill="none" stroke="#637088" stroke-width="4" opacity="1" stroke-linecap="round" stroke-linejoin="round"/><line x1="685" y1="335" x2="905" y2="335" stroke="#a2aab8" stroke-width="4" opacity="1" stroke-linecap="round"/><rect x="815" y="255" width="260" height="150" rx="15" fill="#f7f8fb" stroke="#ffb05c" stroke-width="3" opacity="1"/><path d="M835 280 L945 345 L1055 280" fill="none" stroke="#637088" stroke-width="4" opacity="1" stroke-linecap="round" stroke-linejoin="round"/><line x1="835" y1="380" x2="1055" y2="380" stroke="#a2aab8" stroke-width="4" opacity="1" stroke-linecap="round"/><rect x="965" y="300" width="260" height="150" rx="15" fill="#f7f8fb" stroke="#ff5d7d" stroke-width="3" opacity="1"/><path d="M985 325 L1095 390 L1205 325" fill="none" stroke="#637088" stroke-width="4" opacity="1" stroke-linecap="round" stroke-linejoin="round"/><line x1="985" y1="425" x2="1205" y2="425" stroke="#a2aab8" stroke-width="4" opacity="1" stroke-linecap="round"/><text x="860" y="180" fill="#fff" font-size="23" font-weight="900" text-anchor="middle" opacity="1" font-family="Manrope,Arial,sans-serif">E-POSTA SERİSİ</text></g>
    <rect x="55" y="55" width="190" height="42" rx="21" fill="#07101a" stroke="#ff5d7d" stroke-width="2" opacity="0.96"/>
    <text x="150" y="83" fill="#ff5d7d" font-size="14" font-weight="900" text-anchor="middle" opacity="1" font-family="Manrope,Arial,sans-serif">PAZARLAMA</text>
    <text x="70" y="180" fill="#f4f7ff" font-size="48" font-weight="900" text-anchor="start" opacity="1" font-family="Manrope,Arial,sans-serif">Satış E-postası Serisi</text>
    <text x="72" y="390" fill="#ffb05c" font-size="19" font-weight="800" text-anchor="start" opacity="1" font-family="Manrope,Arial,sans-serif">E-posta</text>
    <text x="72" y="430" fill="#9eb0c8" font-size="15" font-weight="600" text-anchor="start" opacity="1" font-family="Manrope,Arial,sans-serif">ChatGPT • Claude • Gemini</text>
    <rect x="70" y="495" width="230" height="50" rx="25" fill="#07101a" stroke="#ff5d7d" stroke-width="2" opacity="0.95"/>
    <text x="185" y="527" fill="#eafcff" font-size="15" font-weight="900" text-anchor="middle" opacity="1" font-family="Manrope,Arial,sans-serif">PROMPTLA • #47</text>
    </svg>