<svg xmlns="http://www.w3.org/2000/svg" width="1200" height="675" viewBox="0 0 1200 675">
    <defs>
      <linearGradient id="bg" x1="0" y1="0" x2="1" y2="1"><stop stop-color="#081318"/><stop offset="1" stop-color="#12313a"/></linearGradient>
      <radialGradient id="glowA"><stop stop-color="#5ee6dd" stop-opacity=".75"/><stop offset="1" stop-color="#5ee6dd" stop-opacity="0"/></radialGradient>
      <radialGradient id="glowB"><stop stop-color="#7aa7ff" stop-opacity=".85"/><stop offset="1" stop-color="#7aa7ff" stop-opacity=".15"/></radialGradient>
      <linearGradient id="shoeBg" x1="0" y1="0" x2="1" y2="1"><stop stop-color="#ffe76a"/><stop offset="1" stop-color="#ff7db4"/></linearGradient>
      <linearGradient id="reelBg" x1="0" y1="0" x2="0" y2="1"><stop stop-color="#7aa7ff"/><stop offset="1" stop-color="#5ee6dd"/></linearGradient>
      <pattern id="grid" width="36" height="36" patternUnits="userSpaceOnUse"><path d="M36 0H0V36" fill="none" stroke="#ffffff" stroke-opacity=".055"/></pattern>
      <filter id="shadow"><feDropShadow dx="0" dy="18" stdDeviation="18" flood-opacity=".35"/></filter>
    </defs>
    <rect width="1200" height="675" fill="url(#bg)"/>
    <rect width="1200" height="675" fill="url(#grid)"/>
    <circle cx="1020" cy="90" r="230" fill="#7aa7ff" opacity=".08"/>
    <circle cx="180" cy="620" r="260" fill="#5ee6dd" opacity=".06"/>
    <g filter="url(#shadow)"><path d="M730 170 L820 170 L795 280 L870 440 Q875 475 840 500 L710 500 Q675 475 680 440 L755 280 Z" fill="#d9f4f3" stroke="#5ee6dd" stroke-width="4" opacity="1" stroke-linecap="round" stroke-linejoin="round"/><circle cx="770" cy="400" r="45" fill="#7aa7ff" stroke="0.8" stroke-width="2" opacity="1"/><path d="M940 160 L1010 160 L995 260 L1060 420 Q1065 455 1035 480 L915 480 Q885 455 890 420 L955 260 Z" fill="#e8e0ff" stroke="#7aa7ff" stroke-width="4" opacity="1" stroke-linecap="round" stroke-linejoin="round"/><circle cx="970" cy="380" r="35" fill="#5ee6dd" stroke="0.7" stroke-width="2" opacity="1"/><text x="875" y="560" fill="#fff" font-size="21" font-weight="800" text-anchor="middle" opacity="1" font-family="Manrope,Arial,sans-serif">HİPOTEZ → DENEY → SONUÇ</text></g>
    <rect x="55" y="55" width="190" height="42" rx="21" fill="#07101a" stroke="#5ee6dd" stroke-width="2" opacity="0.96"/>
    <text x="150" y="83" fill="#5ee6dd" font-size="14" font-weight="900" text-anchor="middle" opacity="1" font-family="Manrope,Arial,sans-serif">ARAŞTIRMA VE VERI</text>
    <text x="70" y="180" fill="#f4f7ff" font-size="48" font-weight="900" text-anchor="start" opacity="1" font-family="Manrope,Arial,sans-serif">Hipotez ve Deney</text><text x="70" y="242" fill="#f4f7ff" font-size="48" font-weight="900" text-anchor="start" opacity="1" font-family="Manrope,Arial,sans-serif">Tasarımı</text>
    <text x="72" y="390" fill="#7aa7ff" font-size="19" font-weight="800" text-anchor="start" opacity="1" font-family="Manrope,Arial,sans-serif">Deney</text>
    <text x="72" y="430" fill="#9eb0c8" font-size="15" font-weight="600" text-anchor="start" opacity="1" font-family="Manrope,Arial,sans-serif">ChatGPT • Claude • Gemini</text>
    <rect x="70" y="495" width="230" height="50" rx="25" fill="#07101a" stroke="#5ee6dd" stroke-width="2" opacity="0.95"/>
    <text x="185" y="527" fill="#eafcff" font-size="15" font-weight="900" text-anchor="middle" opacity="1" font-family="Manrope,Arial,sans-serif">PROMPTLA • #53</text>
    </svg>