<svg xmlns="http://www.w3.org/2000/svg" width="1200" height="675" viewBox="0 0 1200 675">
    <defs>
      <linearGradient id="bg" x1="0" y1="0" x2="1" y2="1"><stop stop-color="#081318"/><stop offset="1" stop-color="#12313a"/></linearGradient>
      <radialGradient id="glowA"><stop stop-color="#5ee6dd" stop-opacity=".75"/><stop offset="1" stop-color="#5ee6dd" stop-opacity="0"/></radialGradient>
      <radialGradient id="glowB"><stop stop-color="#7aa7ff" stop-opacity=".85"/><stop offset="1" stop-color="#7aa7ff" stop-opacity=".15"/></radialGradient>
      <linearGradient id="shoeBg" x1="0" y1="0" x2="1" y2="1"><stop stop-color="#ffe76a"/><stop offset="1" stop-color="#ff7db4"/></linearGradient>
      <linearGradient id="reelBg" x1="0" y1="0" x2="0" y2="1"><stop stop-color="#7aa7ff"/><stop offset="1" stop-color="#5ee6dd"/></linearGradient>
      <pattern id="grid" width="36" height="36" patternUnits="userSpaceOnUse"><path d="M36 0H0V36" fill="none" stroke="#ffffff" stroke-opacity=".055"/></pattern>
      <filter id="shadow"><feDropShadow dx="0" dy="18" stdDeviation="18" flood-opacity=".35"/></filter>
    </defs>
    <rect width="1200" height="675" fill="url(#bg)"/>
    <rect width="1200" height="675" fill="url(#grid)"/>
    <circle cx="1020" cy="90" r="230" fill="#7aa7ff" opacity=".08"/>
    <circle cx="180" cy="620" r="260" fill="#5ee6dd" opacity=".06"/>
    <g filter="url(#shadow)"><rect x="640" y="160" width="250" height="350" rx="16" fill="#f8fafc" stroke="#7aa7ff" stroke-width="3" opacity="1"/><text x="765" y="210" fill="#1b2538" font-size="22" font-weight="900" text-anchor="middle" opacity="1" font-family="Manrope,Arial,sans-serif">42 SAYFA</text><rect x="680" y="255" width="170" height="7" rx="4" fill="#8c96a5" stroke="none" stroke-width="0" opacity="0.95"/><rect x="680" y="278" width="150" height="7" rx="4" fill="#8c96a5" stroke="none" stroke-width="0" opacity="0.95"/><rect x="680" y="301" width="180" height="7" rx="4" fill="#8c96a5" stroke="none" stroke-width="0" opacity="0.95"/><rect x="680" y="324" width="125" height="7" rx="4" fill="#8c96a5" stroke="none" stroke-width="0" opacity="0.95"/><rect x="680" y="347" width="160" height="7" rx="4" fill="#8c96a5" stroke="none" stroke-width="0" opacity="0.95"/><rect x="680" y="370" width="145" height="7" rx="4" fill="#8c96a5" stroke="none" stroke-width="0" opacity="0.95"/><rect x="680" y="393" width="175" height="7" rx="4" fill="#8c96a5" stroke="none" stroke-width="0" opacity="0.95"/><rect x="680" y="416" width="110" height="7" rx="4" fill="#8c96a5" stroke="none" stroke-width="0" opacity="0.95"/><path d="M910 335 L950 335" fill="none" stroke="#5ee6dd" stroke-width="5" opacity="1" stroke-linecap="round" stroke-linejoin="round"/><path d="M935 315 L955 335 L935 355" fill="none" stroke="#5ee6dd" stroke-width="5" opacity="1" stroke-linecap="round" stroke-linejoin="round"/><rect x="965" y="210" width="180" height="250" rx="16" fill="#0d1b2b" stroke="#5ee6dd" stroke-width="3" opacity="1"/><text x="1055" y="255" fill="#fff" font-size="24" font-weight="900" text-anchor="middle" opacity="1" font-family="Manrope,Arial,sans-serif">ÖZET</text><rect x="995" y="300" width="120" height="7" rx="4" fill="#7aa7ff" stroke="none" stroke-width="0" opacity="0.95"/><rect x="995" y="325" width="105" height="7" rx="4" fill="#7aa7ff" stroke="none" stroke-width="0" opacity="0.95"/><rect x="995" y="350" width="130" height="7" rx="4" fill="#7aa7ff" stroke="none" stroke-width="0" opacity="0.95"/><rect x="995" y="375" width="90" height="7" rx="4" fill="#7aa7ff" stroke="none" stroke-width="0" opacity="0.95"/><rect x="995" y="400" width="115" height="7" rx="4" fill="#7aa7ff" stroke="none" stroke-width="0" opacity="0.95"/></g>
    <rect x="55" y="55" width="190" height="42" rx="21" fill="#07101a" stroke="#5ee6dd" stroke-width="2" opacity="0.96"/>
    <text x="150" y="83" fill="#5ee6dd" font-size="14" font-weight="900" text-anchor="middle" opacity="1" font-family="Manrope,Arial,sans-serif">ARAŞTIRMA VE VERI</text>
    <text x="70" y="180" fill="#f4f7ff" font-size="48" font-weight="900" text-anchor="start" opacity="1" font-family="Manrope,Arial,sans-serif">Uzun Raporu Yönetici</text><text x="70" y="242" fill="#f4f7ff" font-size="48" font-weight="900" text-anchor="start" opacity="1" font-family="Manrope,Arial,sans-serif">Özetine Çevirme</text>
    <text x="72" y="390" fill="#7aa7ff" font-size="19" font-weight="800" text-anchor="start" opacity="1" font-family="Manrope,Arial,sans-serif">Rapor analizi</text>
    <text x="72" y="430" fill="#9eb0c8" font-size="15" font-weight="600" text-anchor="start" opacity="1" font-family="Manrope,Arial,sans-serif">ChatGPT • Claude • Gemini</text>
    <rect x="70" y="495" width="230" height="50" rx="25" fill="#07101a" stroke="#5ee6dd" stroke-width="2" opacity="0.95"/>
    <text x="185" y="527" fill="#eafcff" font-size="15" font-weight="900" text-anchor="middle" opacity="1" font-family="Manrope,Arial,sans-serif">PROMPTLA • #54</text>
    </svg>