<svg xmlns="http://www.w3.org/2000/svg" width="1200" height="675" viewBox="0 0 1200 675">
    <defs>
      <linearGradient id="bg" x1="0" y1="0" x2="1" y2="1"><stop stop-color="#11120a"/><stop offset="1" stop-color="#2b2d12"/></linearGradient>
      <radialGradient id="glowA"><stop stop-color="#d5ef65" stop-opacity=".75"/><stop offset="1" stop-color="#d5ef65" stop-opacity="0"/></radialGradient>
      <radialGradient id="glowB"><stop stop-color="#65e6c4" stop-opacity=".85"/><stop offset="1" stop-color="#65e6c4" stop-opacity=".15"/></radialGradient>
      <linearGradient id="shoeBg" x1="0" y1="0" x2="1" y2="1"><stop stop-color="#ffe76a"/><stop offset="1" stop-color="#ff7db4"/></linearGradient>
      <linearGradient id="reelBg" x1="0" y1="0" x2="0" y2="1"><stop stop-color="#65e6c4"/><stop offset="1" stop-color="#d5ef65"/></linearGradient>
      <pattern id="grid" width="36" height="36" patternUnits="userSpaceOnUse"><path d="M36 0H0V36" fill="none" stroke="#ffffff" stroke-opacity=".055"/></pattern>
      <filter id="shadow"><feDropShadow dx="0" dy="18" stdDeviation="18" flood-opacity=".35"/></filter>
    </defs>
    <rect width="1200" height="675" fill="url(#bg)"/>
    <rect width="1200" height="675" fill="url(#grid)"/>
    <circle cx="1020" cy="90" r="230" fill="#65e6c4" opacity=".08"/>
    <circle cx="180" cy="620" r="260" fill="#d5ef65" opacity=".06"/>
    <g filter="url(#shadow)"><rect x="660" y="155" width="420" height="370" rx="18" fill="#fbfcff" stroke="#65e6c4" stroke-width="3" opacity="1"/><rect x="660" y="155" width="420" height="65" rx="18" fill="#d5ef65" stroke="none" stroke-width="2" opacity="1"/><text x="870" y="198" fill="#07121b" font-size="21" font-weight="900" text-anchor="middle" opacity="1" font-family="Manrope,Arial,sans-serif">HAFTALIK PLAN</text><text x="715" y="255" fill="#253146" font-size="14" font-weight="800" text-anchor="middle" opacity="1" font-family="Manrope,Arial,sans-serif">Pzt</text><rect x="690" y="280" width="52" height="34" rx="7" fill="#d5ef65" stroke="none" stroke-width="2" opacity="1"/><rect x="690" y="330" width="52" height="34" rx="7" fill="#e7ebf3" stroke="none" stroke-width="2" opacity="1"/><rect x="690" y="380" width="52" height="34" rx="7" fill="#e7ebf3" stroke="none" stroke-width="2" opacity="1"/><rect x="690" y="430" width="52" height="34" rx="7" fill="#e7ebf3" stroke="none" stroke-width="2" opacity="1"/><text x="788" y="255" fill="#253146" font-size="14" font-weight="800" text-anchor="middle" opacity="1" font-family="Manrope,Arial,sans-serif">Sal</text><rect x="763" y="280" width="52" height="34" rx="7" fill="#e7ebf3" stroke="none" stroke-width="2" opacity="1"/><rect x="763" y="330" width="52" height="34" rx="7" fill="#e7ebf3" stroke="none" stroke-width="2" opacity="1"/><rect x="763" y="380" width="52" height="34" rx="7" fill="#e7ebf3" stroke="none" stroke-width="2" opacity="1"/><rect x="763" y="430" width="52" height="34" rx="7" fill="#e7ebf3" stroke="none" stroke-width="2" opacity="1"/><text x="861" y="255" fill="#253146" font-size="14" font-weight="800" text-anchor="middle" opacity="1" font-family="Manrope,Arial,sans-serif">Çar</text><rect x="836" y="280" width="52" height="34" rx="7" fill="#e7ebf3" stroke="none" stroke-width="2" opacity="1"/><rect x="836" y="330" width="52" height="34" rx="7" fill="#e7ebf3" stroke="none" stroke-width="2" opacity="1"/><rect x="836" y="380" width="52" height="34" rx="7" fill="#e7ebf3" stroke="none" stroke-width="2" opacity="1"/><rect x="836" y="430" width="52" height="34" rx="7" fill="#d5ef65" stroke="none" stroke-width="2" opacity="1"/><text x="934" y="255" fill="#253146" font-size="14" font-weight="800" text-anchor="middle" opacity="1" font-family="Manrope,Arial,sans-serif">Per</text><rect x="909" y="280" width="52" height="34" rx="7" fill="#e7ebf3" stroke="none" stroke-width="2" opacity="1"/><rect x="909" y="330" width="52" height="34" rx="7" fill="#e7ebf3" stroke="none" stroke-width="2" opacity="1"/><rect x="909" y="380" width="52" height="34" rx="7" fill="#d5ef65" stroke="none" stroke-width="2" opacity="1"/><rect x="909" y="430" width="52" height="34" rx="7" fill="#e7ebf3" stroke="none" stroke-width="2" opacity="1"/><text x="1007" y="255" fill="#253146" font-size="14" font-weight="800" text-anchor="middle" opacity="1" font-family="Manrope,Arial,sans-serif">Cum</text><rect x="982" y="280" width="52" height="34" rx="7" fill="#e7ebf3" stroke="none" stroke-width="2" opacity="1"/><rect x="982" y="330" width="52" height="34" rx="7" fill="#d5ef65" stroke="none" stroke-width="2" opacity="1"/><rect x="982" y="380" width="52" height="34" rx="7" fill="#e7ebf3" stroke="none" stroke-width="2" opacity="1"/><rect x="982" y="430" width="52" height="34" rx="7" fill="#e7ebf3" stroke="none" stroke-width="2" opacity="1"/></g>
    <rect x="55" y="55" width="190" height="42" rx="21" fill="#07101a" stroke="#d5ef65" stroke-width="2" opacity="0.96"/>
    <text x="150" y="83" fill="#d5ef65" font-size="14" font-weight="900" text-anchor="middle" opacity="1" font-family="Manrope,Arial,sans-serif">ÜRETKENLIK</text>
    <text x="70" y="180" fill="#f4f7ff" font-size="48" font-weight="900" text-anchor="start" opacity="1" font-family="Manrope,Arial,sans-serif">Haftalık Çalışma Planı</text>
    <text x="72" y="390" fill="#65e6c4" font-size="19" font-weight="800" text-anchor="start" opacity="1" font-family="Manrope,Arial,sans-serif">Planlama</text>
    <text x="72" y="430" fill="#9eb0c8" font-size="15" font-weight="600" text-anchor="start" opacity="1" font-family="Manrope,Arial,sans-serif">ChatGPT • Claude • Gemini</text>
    <rect x="70" y="495" width="230" height="50" rx="25" fill="#07101a" stroke="#d5ef65" stroke-width="2" opacity="0.95"/>
    <text x="185" y="527" fill="#eafcff" font-size="15" font-weight="900" text-anchor="middle" opacity="1" font-family="Manrope,Arial,sans-serif">PROMPTLA • #55</text>
    </svg>